<?xml version="1.0" encoding="utf-8"?>
<!-- Generator: Adobe Illustrator 27.3.1, SVG Export Plug-In . SVG Version: 6.00 Build 0)  -->
<svg version="1.1" id="Layer_20" xmlns="http://www.w3.org/2000/svg" xmlns:xlink="http://www.w3.org/1999/xlink" x="0px" y="0px"
	 viewBox="0 0 186.3 23.7" style="enable-background:new 0 0 186.3 23.7;" xml:space="preserve">
<style type="text/css">
	.st0{fill:#7DA269;}
</style>
<polygon class="st0" points="94.4,1.3 91.1,3.3 91.1,5.7 91.1,8.3 91.1,11.5 91.1,13.8 91.1,15.8 91.2,15.8 94.4,15.8 94.4,11.5 
	94.4,8.4 97.1,8.4 97.1,5.7 94.4,5.7 "/>
<path class="st0" d="M82.6,5.4c-0.8,0-1.6,0.2-2.3,0.6c-0.7,0.4-1.2,0.9-1.6,1.5V5.7h-3.1v17.2h3.3v-6.3c0.6,0.7,1.2,1.1,1.8,1.4
	s1.2,0.4,1.9,0.4c1.4,0,2.7-0.6,3.7-1.7s1.5-2.8,1.5-4.9c0-2-0.5-3.6-1.5-4.7S84.1,5.4,82.6,5.4z M83.7,14.9
	c-0.5,0.6-1.1,0.9-1.9,0.9c-0.8,0-1.5-0.3-2-1s-0.8-1.7-0.8-3.1c0-1.2,0.3-2.1,0.8-2.8c0.5-0.6,1.2-0.9,2-0.9c0.8,0,1.4,0.3,1.9,0.9
	s0.8,1.6,0.8,2.9C84.4,13.3,84.2,14.3,83.7,14.9z"/>
<polygon class="st0" points="31.1,5.7 27.2,5.7 24.9,9.1 22.7,5.7 18.7,5.7 23,11.8 18.5,18.2 22.4,18.2 24.9,14.3 27.4,18.2 
	31.5,18.2 26.9,11.6 "/>
<path class="st0" d="M66.8,14.6l-3-8.8h-3.5L65,18.2c-0.2,0.7-0.5,1.3-0.8,1.7c-0.4,0.5-0.9,0.7-1.7,0.7c-0.4,0-0.9,0-1.4-0.1
	l0.3,2.6c0.6,0.1,1.2,0.2,1.9,0.2s1.2-0.1,1.7-0.2c0.5-0.1,0.9-0.3,1.3-0.6s0.6-0.5,0.9-0.9s0.5-0.9,0.8-1.7l0.8-2.2l4.4-12h-3.4
	L66.8,14.6z"/>
<rect x="124.8" y="3.9" class="st0" width="2.6" height="4.9"/>
<path class="st0" d="M157.1,6.8c-0.3-0.4-0.8-0.7-1.4-1s-1.3-0.4-2-0.4c-1.6,0-3,0.7-4.1,2.1V5.7h-3.1v12.5h3.3v-5.6
	c0-1.4,0.1-2.3,0.3-2.9s0.5-0.9,0.9-1.2s1-0.5,1.5-0.5c0.4,0,0.8,0.1,1.1,0.3s0.5,0.5,0.7,0.9c0.1,0.4,0.2,1.3,0.2,2.6v6.4h3.3v-7.7
	c0-1-0.1-1.7-0.2-2.2S157.4,7.2,157.1,6.8z"/>
<polygon class="st0" points="172.9,5.7 168.9,5.7 165,10.1 165,1 161.7,1 161.7,18.2 165,18.2 165,14.2 166.6,12.6 169.7,18.2 
	173.2,18.2 168.7,10.3 "/>
<path class="st0" d="M185.2,11.8c-0.7-0.6-1.9-1.1-3.7-1.5s-2.8-0.7-3.1-0.9c-0.2-0.2-0.3-0.4-0.3-0.6c0-0.3,0.1-0.5,0.4-0.7
	c0.4-0.2,1-0.4,1.9-0.4c0.7,0,1.2,0.1,1.6,0.4c0.4,0.3,0.6,0.6,0.8,1.1l3.1-0.6c-0.3-1.1-0.9-1.9-1.7-2.5s-2.1-0.8-3.8-0.8
	c-1.8,0-3.1,0.4-4,1.1s-1.3,1.6-1.3,2.7c0,1.2,0.5,2.1,1.5,2.8c0.7,0.5,2.4,1,5.1,1.6c0.6,0.1,0.9,0.3,1.1,0.4
	c0.2,0.2,0.2,0.4,0.2,0.6c0,0.4-0.1,0.7-0.4,0.9c-0.4,0.3-1.1,0.5-1.9,0.5c-0.8,0-1.4-0.2-1.8-0.5s-0.7-0.8-0.9-1.5l-3.3,0.5
	c0.3,1.2,0.9,2.1,1.9,2.8s2.3,1,4,1c1.9,0,3.3-0.4,4.2-1.2s1.4-1.8,1.4-2.9C186.2,13.2,185.9,12.4,185.2,11.8z"/>
<polygon class="st0" points="134.6,9.8 134.6,5.7 131.3,5.7 131.3,9.8 131.3,13.6 131.3,14.9 131.4,14.9 134.6,14.9 134.6,11.5 "/>
<path class="st0" d="M139.3,5.7V11c0,0.1,0,0.3,0,0.4V12v2.8h-4.7v3.3h4.7h0.2h3.1v-3.3V12V5.7H139.3z"/>
<path class="st0" d="M43.6,4.4c0.6,0.5,1.1,1.2,1.3,2.1l3.4-0.8c-0.4-1.4-1-2.4-1.8-3.2c-1.3-1.2-3-1.9-5.1-1.9c-0.5,0-1,0-1.4,0.1
	v3c0.4-0.1,0.8-0.2,1.2-0.2C42.2,3.7,43,3.9,43.6,4.4z"/>
<path class="st0" d="M43.6,14.6c-0.7,0.6-1.5,0.9-2.4,0.9c-1.3,0-2.3-0.5-3-1.4S37,11.6,37,9.5c0-1.2,0.2-2.2,0.4-3h-3.6
	c-0.3,1-0.4,2.1-0.4,3.3c0,2.7,0.7,4.8,2.2,6.4s3.3,2.3,5.6,2.3c1.8,0,3.4-0.5,4.6-1.4c1.2-0.9,2.1-2.3,2.6-4.2L45,11.8
	C44.7,13.1,44.3,14,43.6,14.6z"/>
<polygon class="st0" points="40,3.8 40,3.8 37.4,3.8 37.4,6.5 40,6.5 "/>
<rect x="94.4" y="15.8" class="st0" width="2.6" height="2.6"/>
<path class="st0" d="M56.2,5.8c-0.4,0.3-0.9,0.8-1.4,1.7V5.7h-3.1v12.5h3.3v-3.8c0-2.1,0.1-3.5,0.3-4.2s0.4-1.1,0.8-1.4
	s0.7-0.4,1.2-0.4c0.5,0,1,0.2,1.5,0.5l1-2.9c-0.7-0.4-1.4-0.6-2.2-0.6C57.1,5.4,56.7,5.6,56.2,5.8z"/>
<polygon class="st0" points="118.3,6.5 118.3,3.9 120,3.9 124.8,3.9 124.8,1.4 124.8,1 118.3,1 118.3,1 114.8,1 114.8,18.2 
	118.3,18.2 118.3,11.7 124.8,11.7 124.8,11.2 124.8,8.8 118.3,8.8 "/>
<path class="st0" d="M8.5,0.7c-0.6,0-1.1,0.1-1.6,0.1v3.1c0.5-0.2,1-0.3,1.6-0.3c1.4,0,2.6,0.5,3.4,1.4c0.9,1,1.3,2.4,1.3,4.4
	c0,2-0.4,3.5-1.3,4.5c-0.9,1-2,1.5-3.4,1.5S6,15,5.1,13.9s-1.3-2.5-1.3-4.4c0-1.2,0.2-2.2,0.5-3h2.6V3.9H4.2v2.6H0.5
	C0.3,7.5,0.2,8.5,0.2,9.7c0,2.7,0.8,4.9,2.3,6.4s3.5,2.3,6.1,2.3c2.5,0,4.5-0.8,6.1-2.4s2.3-3.7,2.3-6.5c0-2.8-0.8-5-2.3-6.6
	S11,0.7,8.5,0.7z"/>
<path class="st0" d="M105.2,5.4c-1.2,0-2.3,0.3-3.3,0.8s-1.8,1.3-2.3,2.3s-0.8,2.1-0.8,3.2c0,1.4,0.3,2.6,0.8,3.6s1.3,1.7,2.4,2.3
	s2.1,0.8,3.3,0.8c1.8,0,3.4-0.6,4.6-1.9c1.2-1.2,1.8-2.8,1.8-4.7c0-1.9-0.6-3.4-1.8-4.6C108.6,6.1,107.1,5.4,105.2,5.4z M107.4,14.8
	c-0.6,0.7-1.3,1-2.2,1s-1.6-0.3-2.2-1s-0.9-1.6-0.9-2.8s0.3-2.2,0.9-2.8s1.3-1,2.2-1s1.6,0.3,2.2,1s0.9,1.6,0.9,2.8
	C108.3,13.2,108,14.1,107.4,14.8z"/>
</svg>
